<svg width="24.000000000000004" height="24.000000000000004" xmlns="http://www.w3.org/2000/svg">

 <g>
  <title>background</title>
  <rect fill="none" id="canvas_background" height="26" width="26" y="-1" x="-1"/>
 </g>
 <g>
  <title>Layer 1</title>
  <rect stroke="null" transform="rotate(45 11.016203880310067,12.233161926269528) " id="svg_2" height="15.743033" width="13.171236" y="4.361645" x="4.430586" fill-opacity="null" stroke-opacity="null" stroke-width="null" fill="#ffffff"/>
  <path id="svg_1" d="m21.143,9.667c-0.733,-1.392 -1.914,-3.05 -3.617,-4.753c-2.977,-2.978 -5.478,-3.914 -6.785,-3.914c-0.414,0 -0.708,0.094 -0.86,0.246l-1.361,1.36c-1.899,-0.236 -3.42,0.106 -4.294,0.983c-0.876,0.875 -1.164,2.159 -0.792,3.523c0.492,1.806 2.305,4.049 5.905,5.375c0.038,0.323 0.157,0.638 0.405,0.885c0.588,0.588 1.535,0.586 2.121,0s0.588,-1.533 0.002,-2.119c-0.588,-0.587 -1.537,-0.588 -2.123,-0.001l-0.17,0.256c-2.031,-0.765 -3.395,-1.828 -4.232,-2.9l3.879,-3.875c0.496,2.73 6.432,8.676 9.178,9.178l-7.115,7.107c-0.234,0.153 -2.798,-0.316 -6.156,-3.675c-3.393,-3.393 -3.175,-5.271 -3.027,-5.498l1.859,-1.856c-0.439,-0.359 -0.925,-1.103 -1.141,-1.689l-2.134,2.131c-0.445,0.446 -0.685,1.064 -0.685,1.82c0,1.634 1.121,3.915 3.713,6.506c2.764,2.764 5.58,4.243 7.432,4.243c0.648,0 1.18,-0.195 1.547,-0.562l8.086,-8.078c0.91,0.874 -0.778,3.538 -0.778,4.648c0,1.104 0.896,1.999 2,1.999c1.105,0 2,-0.896 2,-2c0,-3.184 -1.425,-6.81 -2.857,-9.34zm-16.209,-5.371c0.527,-0.53 1.471,-0.791 2.656,-0.761l-3.209,3.206c-0.236,-0.978 -0.049,-1.845 0.553,-2.445zm9.292,4.079l-0.03,-0.029c-1.292,-1.292 -3.803,-4.356 -3.096,-5.063c0.715,-0.715 3.488,1.521 5.062,3.096c0.862,0.862 2.088,2.247 2.937,3.458c-1.717,-1.074 -3.491,-1.469 -4.873,-1.462z"/>
 </g>
</svg>