<svg width="24" height="24" xmlns="http://www.w3.org/2000/svg">

 <g>
  <title>background</title>
  <rect fill="none" id="canvas_background" height="602" width="802" y="-1" x="-1"/>
 </g>
 <g>
  <title>Layer 1</title>
  <path transform="rotate(90 12,12.000000000000002) " id="svg_1" d="m12,2c5.514,0 10,4.486 10,10s-4.486,10 -10,10s-10,-4.486 -10,-10s4.486,-10 10,-10zm0,-2c-6.627,0 -12,5.373 -12,12s5.373,12 12,12s12,-5.373 12,-12s-5.373,-12 -12,-12zm2,12l-4.5,4.5l1.527,1.5l5.973,-6l-5.973,-6l-1.527,1.5l4.5,4.5z"/>
 </g>
</svg>